<?xml version="1.0" encoding="UTF-8" standalone="no"?>
<!-- Created with Inkscape (http://www.inkscape.org/) -->

<svg
   xmlns:dc="http://purl.org/dc/elements/1.1/"
   xmlns:cc="http://creativecommons.org/ns#"
   xmlns:rdf="http://www.w3.org/1999/02/22-rdf-syntax-ns#"
   xmlns:svg="http://www.w3.org/2000/svg"
   xmlns="http://www.w3.org/2000/svg"
   xmlns:sodipodi="http://sodipodi.sourceforge.net/DTD/sodipodi-0.dtd"
   xmlns:inkscape="http://www.inkscape.org/namespaces/inkscape"
   version="1.1"
   id="svg1402"
   xml:space="preserve"
   width="1066.6667"
   height="1066.6667"
   viewBox="0 0 1066.6667 1066.6667"
   sodipodi:docname="coffee-logotype-publicdomainvectors.org.svg"
   inkscape:version="0.92.4 (5da689c313, 2019-01-14)"><metadata
     id="metadata1408"><rdf:RDF><cc:Work
         rdf:about=""><dc:format>image/svg+xml</dc:format><dc:type
           rdf:resource="http://purl.org/dc/dcmitype/StillImage" /><dc:title></dc:title></cc:Work></rdf:RDF></metadata><defs
     id="defs1406"><clipPath
       clipPathUnits="userSpaceOnUse"
       id="clipPath1418"><path
         d="M 0,800 H 800 V 0 H 0 Z"
         id="path1416"
         inkscape:connector-curvature="0" /></clipPath></defs><sodipodi:namedview
     pagecolor="#ffffff"
     bordercolor="#666666"
     borderopacity="1"
     objecttolerance="10"
     gridtolerance="10"
     guidetolerance="10"
     inkscape:pageopacity="0"
     inkscape:pageshadow="2"
     inkscape:window-width="1920"
     inkscape:window-height="1018"
     id="namedview1404"
     showgrid="false"
     inkscape:zoom="0.74837146"
     inkscape:cx="533.33337"
     inkscape:cy="540.11304"
     inkscape:window-x="-8"
     inkscape:window-y="-8"
     inkscape:window-maximized="1"
     inkscape:current-layer="g1410" /><g
     id="g1410"
     inkscape:groupmode="layer"
     inkscape:label="coffee-logotype-publicdomainvectors.org"
     transform="matrix(1.3333333,0,0,-1.3333333,0,1066.6667)"><g
       id="g1412"><g
         id="g1414"
         clip-path="url(#clipPath1418)"><path
           d="m 406.834,330.928 c 0,0 -0.507,0.006 -1.458,-0.084 -0.785,-0.078 -1.876,-0.155 -3.229,-0.27 1.428,0.037 2.573,0.213 3.365,0.229 0.863,0.013 1.322,0.125 1.322,0.125 M 246.13,654.044 c 3.188,-10.835 8.602,-20.846 15.224,-29.704 3.318,-4.42 6.883,-8.656 10.732,-12.547 1.881,-2.015 3.9,-3.83 5.879,-5.73 2.065,-1.763 4.091,-3.621 6.23,-5.279 8.469,-6.803 17.507,-12.784 26.924,-17.888 9.441,-5.061 19.195,-9.38 29.091,-13.081 9.886,-3.745 19.994,-6.634 30.077,-9.138 2.496,-0.644 5.087,-1.22 7.687,-1.784 l 3.88,-0.857 3.614,-0.705 c 2.379,-0.451 4.754,-0.895 7.127,-1.344 2.154,-0.367 4.253,-0.85 6.347,-1.325 16.662,-3.975 31.78,-10.981 42.26,-21.288 5.326,-5.061 9.367,-10.961 12.096,-17.258 2.793,-6.284 4.173,-13.043 4.197,-19.779 0.143,-6.75 -1.18,-13.468 -3.483,-19.715 -1.105,-3.147 -2.498,-6.175 -4.109,-9.053 -1.601,-2.881 -3.382,-5.64 -5.373,-8.194 -7.797,-10.403 -17.985,-18.053 -27.904,-23.376 -9.945,-5.409 -19.688,-8.558 -27.872,-10.682 -8.217,-1.996 -14.948,-3.135 -19.526,-3.653 -4.642,-0.53 -7.118,-0.812 -7.118,-0.812 0,0 0.612,-0.116 1.801,-0.338 1.194,-0.198 2.937,-0.622 5.266,-0.906 4.671,-0.663 11.556,-1.518 20.494,-1.414 8.912,0.165 19.933,1.229 32.248,5.072 6.142,1.931 12.561,4.609 19.053,8.189 4.377,2.528 8.791,5.48 13.067,8.957 -6.532,-0.215 -11.759,0.159 -15.494,0.485 -2.243,0.172 -3.937,0.483 -5.091,0.607 -1.15,0.15 -1.744,0.228 -1.744,0.228 0,0 2.398,0.114 6.865,0.443 4.432,0.315 10.95,1.112 18.974,2.84 0.741,0.159 1.51,0.345 2.274,0.528 0.02,0.017 0.037,0.034 0.054,0.051 3.008,2.913 5.842,6.169 8.514,9.699 2.673,3.525 5.155,7.356 7.306,11.501 4.255,8.289 7.399,17.76 8.459,27.981 1.016,10.197 -0.034,21.066 -3.457,31.499 -3.459,10.406 -9.274,20.262 -16.74,28.593 -7.467,8.35 -16.497,15.213 -26.142,20.59 -2.4,1.395 -4.873,2.586 -7.347,3.826 -2.508,1.101 -5.022,2.263 -7.58,3.214 -5.098,2.035 -10.295,3.669 -15.533,5.11 -2.624,0.692 -5.251,1.376 -7.891,1.923 l -3.653,0.805 -3.587,0.757 -3.591,0.738 -3.293,0.769 c -2.192,0.503 -4.394,1.01 -6.654,1.62 -9,2.269 -17.825,5.096 -26.473,8.178 -8.63,3.127 -17.007,6.748 -24.948,10.894 -7.993,4.056 -15.509,8.705 -22.357,13.872 -6.827,5.185 -13.038,10.812 -18.131,16.975 -2.606,3.049 -4.778,6.285 -6.781,9.529 -2.024,3.241 -3.662,6.591 -4.948,9.98 -2.629,6.779 -3.71,13.724 -3.414,20.551 0.126,3.424 0.724,6.804 1.621,10.118 0.904,3.309 2.063,6.587 3.614,9.721 2.935,6.347 7.292,12.065 11.953,17.376 4.736,5.284 10.166,9.839 15.645,14.017 11.06,8.271 22.732,14.392 33.379,19.26 10.682,4.863 20.452,8.416 28.598,11.146 2.029,0.728 3.98,1.292 5.808,1.88 1.829,0.592 3.538,1.188 5.149,1.651 3.222,0.95 5.961,1.829 8.203,2.421 4.491,1.282 6.883,1.966 6.883,1.966 0,0 -2.494,-0.014 -7.171,-0.035 -4.67,-0.153 -11.558,-0.297 -20.302,-1.207 -8.75,-0.862 -19.382,-2.394 -31.456,-5.394 -6.069,-1.408 -12.415,-3.432 -19.09,-5.793 -6.684,-2.353 -13.55,-5.443 -20.566,-9.197 -7.016,-3.755 -14.071,-8.399 -20.878,-14.161 -3.365,-2.93 -6.76,-6.021 -9.838,-9.621 -1.615,-1.715 -3.044,-3.668 -4.572,-5.545 -1.402,-2 -2.899,-3.952 -4.18,-6.113 -2.685,-4.22 -5.057,-8.835 -6.885,-13.792 -1.859,-4.936 -3.301,-10.189 -4.054,-15.64 -0.772,-5.439 -1.001,-11.051 -0.561,-16.657 0.45,-5.606 1.588,-11.158 3.194,-16.555 M 527.234,240.008 c -12.135,-2.444 -24.499,-4.338 -36.992,-5.899 -24.988,-3.171 -50.545,-4.421 -76.071,-4.492 -25.523,0.08 -51.084,1.344 -76.065,4.526 -12.492,1.566 -24.859,3.435 -36.988,5.908 -12.121,2.521 -24.022,5.51 -35.538,9.332 -5.424,1.763 -10.731,3.849 -15.909,6.185 0.045,-0.054 0.08,-0.111 0.123,-0.166 1.568,-1.709 3.3,-3.353 5.342,-4.713 3.99,-2.818 8.548,-5.056 13.263,-7.013 4.732,-1.938 9.638,-3.649 14.686,-5.092 10.077,-2.934 20.571,-5.162 31.268,-6.975 10.7,-1.802 21.604,-3.273 32.639,-4.367 22.085,-2.14 44.6,-3.271 67.201,-3.178 22.51,-0.08 45.093,1.036 67.156,3.194 11.035,1.097 21.937,2.555 32.635,4.375 10.695,1.81 21.19,4.037 31.266,6.971 5.047,1.445 9.954,3.152 14.685,5.089 4.713,1.957 9.271,4.196 13.257,7.01 2.042,1.36 3.776,3.002 5.343,4.709 l 0.051,0.072 c -5.146,-2.324 -10.424,-4.386 -15.814,-6.138 -11.517,-3.825 -23.418,-6.815 -35.538,-9.338 M 289.938,697.102 c -0.042,-0.12 -0.09,-0.241 -0.127,-0.363 -0.909,-2.499 -1.422,-4.987 -1.75,-7.364 -0.337,-2.384 -0.381,-4.696 -0.187,-6.939 0.21,-2.344 0.642,-4.635 1.329,-6.929 8.231,4.042 16.684,7.695 25.339,10.936 -0.721,1.383 -1.384,2.829 -1.965,4.363 -1.074,2.81 -1.814,5.912 -2.066,9.115 -0.133,1.85 -0.07,3.724 0.143,5.567 -7.03,-2.548 -13.941,-5.344 -20.716,-8.386 m 123.785,26.4 c -27.086,0 -53.333,-3.577 -78.315,-10.252 -0.382,-0.444 -0.763,-0.888 -1.111,-1.336 -1.873,-2.431 -3.018,-4.883 -3.322,-6.971 -0.296,-2.091 -0.017,-3.985 1.048,-6.363 0.738,-1.648 1.934,-3.432 3.417,-5.217 24.875,7.156 51.137,10.999 78.283,10.999 156.326,0 283.51,-127.182 283.51,-283.51 0,-156.329 -127.184,-283.508 -283.51,-283.508 -156.327,0 -283.511,127.179 -283.511,283.508 0,87.525 39.874,165.904 102.403,217.951 -1.212,3.153 -2.284,6.384 -3.192,9.694 -0.944,3.496 -1.711,7.056 -2.29,10.655 -70.658,-55.403 -116.061,-141.548 -116.061,-238.3 0,-167.151 135.5,-302.649 302.651,-302.649 167.15,0 302.651,135.498 302.651,302.649 0,167.15 -135.501,302.65 -302.651,302.65 M 388.228,429.414 c 3.871,1.72 8.087,3.44 12.37,5.803 4.275,2.34 8.693,4.975 12.981,8.111 0.408,0.297 0.813,0.618 1.221,0.924 -0.211,10e-4 -0.418,0.005 -0.629,0.005 -59.742,0 -108.17,-12.03 -108.17,-26.874 0,-14.844 48.428,-26.875 108.17,-26.875 59.738,0 108.17,12.031 108.17,26.875 0,9.613 -20.329,18.041 -50.868,22.791 -0.918,-0.86 -1.839,-1.698 -2.77,-2.505 -7.184,-6.267 -14.814,-10.904 -22.209,-14.456 -7.45,-3.463 -14.709,-5.782 -21.528,-7.275 -13.666,-2.989 -25.449,-2.769 -34.766,-1.841 -4.678,0.549 -8.756,1.196 -12.262,2.006 -1.751,0.411 -3.352,0.762 -4.817,1.14 -1.461,0.426 -2.787,0.812 -3.973,1.158 -2.348,0.662 -4.054,1.389 -5.251,1.785 -1.179,0.439 -1.787,0.666 -1.787,0.666 0,0 2.486,0.703 7.145,2.02 4.522,1.331 11.169,3.394 18.973,6.542 m -247.576,-8.562 c 0,-150.569 122.498,-273.069 273.071,-273.069 150.569,0 273.07,122.5 273.07,273.069 0,150.57 -122.501,273.07 -273.07,273.07 -23.929,0 -47.146,-3.104 -69.277,-8.914 0.535,-0.411 1.066,-0.821 1.615,-1.229 6.424,-4.724 13.899,-8.91 21.694,-12.853 7.806,-3.957 16.051,-7.573 24.506,-10.98 8.433,-3.464 17.101,-6.706 25.898,-9.772 8.795,-3.074 17.682,-6.09 26.656,-8.907 4.53,-1.456 8.805,-2.675 13.679,-4.292 l 3.629,-1.196 3.596,-1.324 c 2.406,-0.846 4.761,-1.865 7.127,-2.831 9.427,-3.965 18.487,-8.956 26.882,-14.862 8.339,-5.982 16.085,-12.825 22.617,-20.654 6.558,-7.786 11.972,-16.441 15.989,-25.535 4,-9.11 6.498,-18.673 7.619,-28.148 1.074,-9.49 0.653,-18.897 -1.013,-27.77 -3.323,-17.791 -11.778,-33.231 -22.31,-44.476 -5.22,-5.682 -10.987,-10.325 -16.778,-14.119 -5.794,-3.805 -11.684,-6.697 -17.367,-8.875 -1.169,-0.452 -2.324,-0.86 -3.472,-1.251 31.431,-7.726 53.892,-21.387 53.892,-40.698 0,-2.899 -0.126,-5.368 -0.337,-8.848 h 43.936 v -3.48 h -44.231 c -0.116,0 -0.238,-1.74 -0.38,-3.48 h 46.14 c 1.486,-22.621 -17.699,-58.903 -62.916,-66.283 6.186,-0.94 12.551,-1.944 19.107,-3.209 9.352,-1.846 19.048,-4.088 28.904,-7.295 4.937,-1.565 9.917,-3.356 14.848,-5.635 4.92,-2.281 9.859,-4.92 14.382,-8.744 1.169,-0.883 2.171,-2.082 3.252,-3.151 0.503,-0.595 0.969,-1.244 1.452,-1.873 0.231,-0.324 0.486,-0.627 0.7,-0.97 l 0.597,-1.088 c 0.868,-1.401 1.401,-3.078 1.86,-4.762 0.126,-0.879 0.238,-1.768 0.33,-2.66 0.023,0.211 0.013,-0.668 0.003,-0.666 l -0.021,-0.26 -0.037,-0.521 -0.078,-1.043 -0.037,-0.522 -0.164,-0.711 -0.373,-1.435 c -0.14,-0.465 -0.266,-0.983 -0.439,-1.397 l -0.55,-1.166 c -0.684,-1.623 -1.683,-2.922 -2.627,-4.305 -2.07,-2.488 -4.347,-4.757 -6.828,-6.572 -3.49,-2.681 -7.209,-4.896 -11.028,-6.877 -0.075,-0.254 -0.142,-0.519 -0.238,-0.744 l -0.469,-0.955 c -0.564,-1.324 -1.421,-2.402 -2.216,-3.549 -1.774,-2.078 -3.728,-3.994 -5.899,-5.541 -4.286,-3.209 -9.01,-5.68 -13.86,-7.863 -4.866,-2.156 -9.875,-4.061 -15,-5.686 -10.24,-3.3 -20.85,-5.869 -31.657,-8.017 -10.821,-2.094 -21.848,-3.713 -32.996,-5.03 -22.304,-2.654 -45.069,-3.685 -67.884,-3.787 -22.729,0.116 -45.562,1.131 -67.844,3.803 -22.284,2.611 -44.146,6.49 -64.647,13.053 -5.123,1.625 -10.135,3.529 -14.999,5.683 -4.85,2.182 -9.572,4.653 -13.856,7.86 -2.172,1.545 -4.126,3.461 -5.896,5.535 -1.207,1.564 -2.247,3.336 -2.909,5.273 -3.822,1.979 -7.542,4.192 -11.032,6.871 -2.479,1.815 -4.754,4.082 -6.821,6.567 -1.974,2.609 -3.643,5.752 -4.159,9.318 l -0.113,1.344 -0.047,0.672 -0.017,0.332 c -0.02,0.051 0.044,0.846 0.036,0.627 l 0.266,2.066 c 0.176,0.821 0.503,1.826 0.792,2.709 0.276,0.981 0.731,1.567 1.108,2.338 l 0.596,1.088 c 0.215,0.346 0.468,0.646 0.703,0.969 0.479,0.631 0.946,1.279 1.444,1.875 1.08,1.07 2.083,2.269 3.249,3.15 4.519,3.822 9.457,6.471 14.377,8.754 4.928,2.279 9.905,4.084 14.839,5.658 9.856,3.207 19.55,5.487 28.903,7.332 8.975,1.735 17.612,3.131 25.877,4.276 0.551,-0.184 1.082,-0.362 1.655,-0.549 0.726,-0.24 1.492,-0.488 2.248,-0.735 -9.284,-1.509 -19.033,-3.384 -29.134,-5.902 -9.171,-2.258 -18.645,-4.963 -28.101,-8.535 -4.727,-1.783 -9.444,-3.814 -13.981,-6.227 -4.525,-2.4 -8.967,-5.17 -12.576,-8.597 -0.974,-0.809 -1.647,-1.793 -2.481,-2.676 -0.35,-0.475 -0.648,-0.969 -0.977,-1.445 -0.156,-0.243 -0.343,-0.475 -0.476,-0.721 l -0.343,-0.75 c -0.19,-0.481 -0.568,-1.037 -0.592,-1.422 -0.088,-0.443 -0.251,-0.744 -0.365,-1.269 l -0.145,-1.981 c 0.002,0 0.002,0.022 0.004,0.006 l 0.034,-0.184 0.058,-0.367 0.102,-0.734 c 0.414,-1.951 1.505,-3.873 3.025,-5.682 1.661,-1.74 3.5,-3.445 5.726,-4.877 4.328,-2.959 9.345,-5.342 14.548,-7.414 5.231,-2.051 10.664,-3.859 16.254,-5.41 11.165,-3.139 22.826,-5.504 34.712,-7.402 11.891,-1.899 24.008,-3.465 36.28,-4.592 24.549,-2.19 49.615,-3.324 74.695,-3.268 25.081,-0.045 50.148,1.098 74.691,3.301 12.269,1.131 24.392,2.674 36.28,4.602 11.883,1.896 23.541,4.259 34.705,7.394 5.591,1.549 11.017,3.369 16.248,5.414 5.203,2.069 10.218,4.451 14.542,7.406 2.225,1.432 4.061,3.133 5.722,4.872 0.677,0.923 1.486,1.812 1.921,2.779 l 0.408,0.707 c 0.112,0.224 0.132,0.398 0.217,0.596 0.072,0.191 0.15,0.38 0.238,0.572 l 0.139,0.287 0.069,0.521 0.213,1.664 c -0.047,0.493 -0.078,0.985 -0.091,1.485 -0.251,0.984 -0.442,2 -0.996,2.98 l -0.343,0.748 c -0.129,0.248 -0.317,0.479 -0.473,0.719 -0.329,0.477 -0.629,0.967 -0.975,1.442 -0.832,0.884 -1.505,1.865 -2.477,2.675 -3.606,3.424 -8.045,6.194 -12.568,8.594 -4.537,2.414 -9.25,4.44 -13.975,6.231 -9.454,3.576 -18.926,6.281 -28.098,8.539 -8.819,2.201 -17.373,3.914 -25.584,5.322 -0.224,-0.018 -0.442,-0.047 -0.666,-0.065 0.584,1.092 1.128,2.27 1.741,3.502 0.744,1.545 1.525,3.174 2.337,4.86 0.843,1.67 1.594,3.449 2.348,5.258 0.765,1.802 1.54,3.636 2.319,5.47 0.798,1.819 1.433,3.707 2.151,5.53 0.686,1.832 1.393,3.623 2.018,5.375 1.19,3.531 2.4,6.789 3.256,9.642 0.914,2.832 1.635,5.205 2.111,6.875 0.472,1.67 0.74,2.623 0.74,2.623 0,0 -0.322,-0.937 -0.883,-2.578 -0.564,-1.641 -1.414,-3.967 -2.481,-6.742 -1.009,-2.793 -2.393,-5.977 -3.769,-9.42 -0.717,-1.711 -1.519,-3.453 -2.301,-5.236 -0.812,-1.772 -1.546,-3.61 -2.44,-5.373 -0.866,-1.774 -1.736,-3.547 -2.593,-5.295 -0.847,-1.75 -1.683,-3.467 -2.606,-5.071 -0.891,-1.619 -1.754,-3.183 -2.57,-4.668 -0.833,-1.47 -1.54,-2.91 -2.369,-4.13 -0.183,-0.29 -0.349,-0.553 -0.526,-0.833 -0.459,-0.021 -0.901,-0.064 -1.366,-0.082 -9.38,-11.169 -20.558,-21.275 -33.116,-29.334 -42.498,-13.863 -79.802,-12.806 -122.3,1.057 -3.988,2.559 -7.831,5.283 -11.533,8.154 1.321,-0.232 2.636,-0.517 3.976,-0.709 1.369,-0.179 2.743,-0.361 4.116,-0.543 2.748,-0.341 5.473,-0.771 8.178,-1.029 2.709,-0.217 5.373,-0.431 7.95,-0.637 1.289,-0.091 2.548,-0.228 3.792,-0.279 1.244,-0.033 2.464,-0.066 3.652,-0.099 2.364,-0.063 4.6,-0.124 6.661,-0.178 2.058,-0.11 3.934,0.068 5.601,0.086 1.667,0.051 3.119,0.097 4.314,0.134 2.396,0.077 3.762,0.12 3.762,0.12 0,0 -1.363,0.119 -3.749,0.328 -1.192,0.105 -2.64,0.234 -4.299,0.381 -1.658,0.181 -3.547,0.228 -5.566,0.582 -2.019,0.297 -4.207,0.619 -6.519,0.959 -1.151,0.17 -2.334,0.345 -3.544,0.523 -1.207,0.195 -2.435,0.479 -3.686,0.719 -2.493,0.506 -5.07,1.023 -7.687,1.555 -2.607,0.562 -5.22,1.306 -7.844,1.955 -1.31,0.334 -2.618,0.67 -3.92,1.002 -1.3,0.347 -2.566,0.787 -3.837,1.171 -2.526,0.793 -5.012,1.575 -7.419,2.33 -2.209,0.838 -4.343,1.647 -6.378,2.418 -3.182,3.086 -6.201,6.305 -9.058,9.655 0.871,-0.242 1.758,-0.467 2.66,-0.713 2.843,-0.754 5.823,-1.506 8.897,-2.25 3.12,-0.633 6.333,-1.246 9.584,-1.836 1.531,-0.264 3.06,-0.568 4.606,-0.789 1.553,-0.209 3.11,-0.412 4.663,-0.611 3.122,-0.381 6.221,-0.811 9.281,-1.077 1.047,-0.078 2.085,-0.156 3.117,-0.23 2.008,-0.145 3.982,-0.277 5.913,-0.397 1.462,-0.078 2.892,-0.193 4.301,-0.232 1.412,-0.025 2.795,-0.045 4.139,-0.061 1.589,-0.017 3.123,-0.029 4.597,-0.033 1.012,-0.006 1.994,-0.006 2.944,-0.006 2.332,-0.039 4.458,0.161 6.34,0.231 1.539,0.082 2.916,0.16 4.106,0.232 0.269,0.016 0.526,0.033 0.776,0.049 1.243,0.078 2.238,0.143 2.954,0.192 0.847,0.058 1.303,0.085 1.303,0.085 0,0 -0.39,0.012 -1.119,0.03 -0.744,0.019 -1.848,0.054 -3.257,0.101 -0.056,0 -0.114,0.002 -0.17,0.004 -1.456,0.049 -3.223,0.119 -5.249,0.213 -1.798,0.111 -3.816,0.145 -5.978,0.358 -0.261,0.027 -0.523,0.054 -0.786,0.087 -2.464,0.25 -5.13,0.539 -7.948,0.875 -1.405,0.166 -2.847,0.346 -4.319,0.536 -1.006,0.136 -2.021,0.312 -3.048,0.49 -0.481,0.084 -0.962,0.17 -1.443,0.25 -3.052,0.529 -6.198,1.109 -9.385,1.73 -2.428,0.496 -4.863,1.098 -7.296,1.703 -0.755,0.188 -1.508,0.375 -2.261,0.561 -1.59,0.402 -3.179,0.812 -4.759,1.228 -1.572,0.424 -3.115,0.932 -4.649,1.403 -2.061,0.648 -4.094,1.304 -6.079,1.961 -0.985,0.328 -1.959,0.654 -2.916,0.98 -2.861,1.098 -5.597,2.192 -8.156,3.256 -1.281,0.547 -2.538,1.033 -3.697,1.606 -1.207,0.597 -2.354,1.183 -3.433,1.75 -0.649,0.339 -1.271,0.669 -1.869,0.996 -1.171,0.646 -2.194,1.246 -3.119,1.806 -1.146,1.791 -2.237,3.621 -3.294,5.473 1.801,-0.641 3.727,-1.305 5.777,-1.99 1.16,-0.385 2.351,-0.776 3.572,-1.17 1.246,-0.399 2.536,-0.723 3.841,-1.086 3.349,-0.928 6.851,-1.83 10.452,-2.686 3.675,-0.781 7.454,-1.515 11.266,-2.185 1.716,-0.293 3.43,-0.612 5.16,-0.856 1.733,-0.238 3.47,-0.465 5.203,-0.679 3.497,-0.422 6.967,-0.848 10.382,-1.123 1.17,-0.088 2.332,-0.17 3.484,-0.245 2.253,-0.146 4.467,-0.271 6.629,-0.373 1.636,-0.072 3.237,-0.16 4.81,-0.185 1.58,-0.018 3.123,-0.026 4.626,-0.022 1.774,0 3.487,0.012 5.13,0.035 1.132,0.018 2.23,0.036 3.291,0.061 2.605,0.029 4.98,0.244 7.083,0.373 1.715,0.119 3.252,0.232 4.575,0.342 0.301,0.025 0.59,0.039 0.871,0.064 0.021,0.002 0.039,-0.142 0.062,-0.142 -0.152,-0.004 -0.293,-0.16 -0.452,-0.16 h -0.202 c -1.718,0 -3.805,0.357 -6.197,0.396 -2.122,0.063 -4.496,0.352 -7.053,0.522 -0.3,0.019 -0.603,0.078 -0.91,0.103 -2.909,0.201 -6.056,0.481 -9.378,0.809 -1.656,0.164 -3.357,0.357 -5.092,0.556 -1.186,0.141 -2.388,0.323 -3.603,0.506 -0.56,0.086 -1.128,0.176 -1.697,0.262 -3.609,0.557 -7.322,1.195 -11.079,1.908 -2.863,0.563 -5.74,1.229 -8.607,1.924 -0.89,0.217 -1.775,0.432 -2.661,0.65 -1.876,0.469 -3.745,0.953 -5.597,1.451 -1.847,0.508 -3.663,1.084 -5.467,1.639 -2.428,0.764 -4.814,1.549 -7.138,2.346 -1.159,0.4 -2.304,0.801 -3.431,1.205 -3.373,1.309 -6.581,2.635 -9.548,3.947 -1.497,0.672 -2.952,1.305 -4.297,1.996 -1.443,0.75 -2.802,1.487 -4.065,2.203 -0.751,0.428 -1.468,0.848 -2.146,1.258 -1.704,1.047 -3.152,2.037 -4.261,2.883 -0.255,0.219 -0.481,0.424 -0.687,0.615 -0.452,1.125 -0.889,2.256 -1.308,3.395 1.233,-0.522 2.516,-1.059 3.894,-1.617 2.07,-0.764 4.279,-1.543 6.598,-2.327 1.232,-0.416 2.497,-0.832 3.784,-1.246 1.323,-0.423 2.68,-0.793 4.057,-1.189 3.855,-1.102 7.882,-2.147 12.006,-3.117 4.235,-0.932 8.577,-1.783 12.95,-2.539 1.897,-0.321 3.8,-0.649 5.708,-0.918 1.919,-0.268 3.837,-0.516 5.749,-0.748 3.876,-0.463 7.714,-0.889 11.484,-1.172 1.294,-0.094 2.579,-0.18 3.851,-0.254 2.496,-0.151 4.95,-0.268 7.342,-0.356 1.812,-0.058 3.582,-0.123 5.323,-0.136 1.746,-0.01 3.452,-0.004 5.109,0.015 1.961,0.022 3.853,0.061 5.664,0.114 1.254,0.037 2.467,0.08 3.639,0.127 2.879,0.097 5.503,0.337 7.824,0.519 1.896,0.158 3.587,0.32 5.047,0.469 0.332,0.035 0.654,0.068 0.961,0.101 1.529,0.162 2.755,0.299 3.633,0.409 1.054,0.123 1.615,0.189 1.615,0.189 0,0 -0.532,-0.027 -1.53,-0.074 -1.005,-0.055 -2.488,-0.112 -4.374,-0.172 -0.08,-0.004 -0.158,-0.008 -0.238,-0.01 -1.977,-0.062 -4.38,-0.111 -7.143,-0.117 -2.448,0.006 -5.178,-0.004 -8.127,0.119 -0.342,0.014 -0.686,0.031 -1.032,0.051 -3.355,0.152 -6.984,0.381 -10.807,0.703 -1.91,0.16 -3.871,0.346 -5.869,0.557 -1.37,0.15 -2.753,0.326 -4.153,0.515 -0.65,0.086 -1.3,0.178 -1.953,0.266 -4.168,0.588 -8.453,1.283 -12.776,2.09 -3.302,0.627 -6.619,1.357 -9.921,2.138 -1.023,0.243 -2.042,0.491 -3.058,0.741 -2.161,0.533 -4.309,1.095 -6.437,1.675 -2.12,0.586 -4.214,1.231 -6.278,1.873 -2.795,0.879 -5.538,1.79 -8.201,2.729 -1.337,0.473 -2.653,0.949 -3.947,1.434 -3.888,1.515 -7.567,3.076 -10.943,4.636 -1.713,0.801 -3.361,1.573 -4.894,2.387 -1.679,0.9 -3.252,1.789 -4.693,2.658 -0.857,0.514 -1.669,1.022 -2.43,1.52 -0.512,0.34 -0.998,0.67 -1.462,0.998 -0.327,1.316 -0.634,2.642 -0.921,3.98 1.451,-0.619 2.959,-1.242 4.544,-1.873 2.211,-0.84 4.537,-1.676 6.953,-2.5 1.306,-0.445 2.638,-0.885 3.99,-1.322 1.402,-0.445 2.828,-0.863 4.275,-1.287 4.364,-1.277 8.911,-2.467 13.561,-3.551 4.794,-1.086 9.699,-2.055 14.63,-2.891 2.085,-0.351 4.173,-0.689 6.262,-0.986 2.102,-0.293 4.203,-0.566 6.295,-0.816 4.248,-0.5 8.459,-0.926 12.583,-1.219 1.417,-0.1 2.824,-0.188 4.219,-0.264 2.741,-0.154 5.434,-0.263 8.058,-0.334 1.985,-0.052 3.929,-0.09 5.83,-0.091 1.915,0 3.783,0.019 5.597,0.054 2.147,0.041 4.216,0.106 6.197,0.186 1.373,0.06 2.705,0.125 3.987,0.195 3.15,0.166 6.022,0.428 8.561,0.662 2.076,0.199 3.924,0.401 5.52,0.588 0.365,0.045 0.716,0.09 1.055,0.129 1.673,0.203 3.011,0.375 3.972,0.514 1.153,0.158 1.772,0.244 1.772,0.244 0,0 -0.605,-0.047 -1.737,-0.127 -1.134,-0.092 -2.804,-0.195 -4.931,-0.309 -0.088,-0.006 -0.182,-0.011 -0.272,-0.017 -2.239,-0.118 -4.961,-0.225 -8.088,-0.284 -2.773,-0.044 -5.863,-0.076 -9.203,0.002 -0.385,0.006 -0.769,0.018 -1.159,0.032 -3.8,0.105 -7.905,0.3 -12.234,0.619 -2.163,0.158 -4.385,0.347 -6.646,0.568 -1.548,0.154 -3.118,0.33 -4.705,0.526 -0.733,0.089 -1.468,0.183 -2.209,0.277 -4.721,0.611 -9.577,1.369 -14.468,2.267 -3.738,0.692 -7.497,1.485 -11.235,2.358 -1.155,0.269 -2.308,0.545 -3.46,0.826 -2.443,0.604 -4.871,1.238 -7.274,1.904 -2.396,0.666 -4.76,1.377 -7.091,2.106 -3.164,0.994 -6.26,2.035 -9.261,3.113 -1.512,0.545 -3.002,1.098 -4.46,1.658 -4.406,1.725 -8.556,3.52 -12.34,5.33 -1.931,0.926 -3.771,1.844 -5.492,2.778 -1.215,0.666 -2.357,1.328 -3.458,1.983 -0.204,1.62 -0.372,3.254 -0.515,4.902 5.71,-2.331 11.974,-4.534 18.622,-6.514 9.9,-2.957 20.619,-5.42 31.426,-7.229 10.807,-1.804 21.699,-2.957 31.922,-3.478 10.224,-0.533 19.772,-0.426 27.926,-0.004 8.155,0.424 14.916,1.158 19.629,1.775 2.356,0.313 4.203,0.575 5.457,0.776 1.258,0.191 1.93,0.295 1.93,0.295 0,0 -0.677,-0.065 -1.942,-0.18 -1.268,-0.125 -3.127,-0.275 -5.492,-0.445 -4.731,-0.332 -11.502,-0.657 -19.617,-0.59 -8.116,0.07 -17.572,0.533 -27.623,1.664 -10.053,1.121 -20.697,2.902 -31.174,5.306 -10.479,2.411 -20.79,5.447 -30.202,8.884 -7.893,2.88 -15.142,6.043 -21.336,9.234 -0.01,0.693 -0.035,1.38 -0.035,2.075 0,34.11 70.028,50.142 135.88,48.11 0.175,0.18 0.357,0.35 0.531,0.53 1.851,2.051 3.716,4.099 5.327,6.359 1.68,2.196 3.203,4.512 4.533,6.919 5.454,9.53 7.933,20.433 6.458,29.93 -0.334,2.373 -0.904,4.662 -1.703,6.833 -0.768,2.177 -1.733,4.25 -2.925,6.208 -2.343,3.932 -5.421,7.493 -9.434,10.725 -7.896,6.502 -19.737,11.677 -34.017,14.651 -1.787,0.369 -3.578,0.746 -5.447,1.023 -2.351,0.414 -4.704,0.826 -7.061,1.239 l -3.631,0.668 -4.223,0.883 -4.229,0.894 -4.061,0.944 c -10.723,2.611 -21.506,5.723 -32.14,9.744 -21.274,7.942 -42.292,18.868 -61.036,34.541 -2.357,1.898 -4.629,4.033 -6.909,6.062 -2.223,2.189 -4.455,4.279 -6.579,6.614 -4.296,4.51 -8.378,9.418 -12.092,14.657 -3.552,4.986 -6.804,10.325 -9.642,15.959 -58.93,-50.127 -96.384,-124.779 -96.384,-208.023 m 354.6,55.607 c -1.961,-5.475 -4.374,-10.586 -7.086,-15.318 -1.318,-2.276 -2.719,-4.447 -4.177,-6.529 0.299,0.155 0.595,0.294 0.894,0.454 4.894,2.641 9.818,5.886 14.539,9.791 4.696,3.929 9.213,8.499 13.189,13.774 7.959,10.521 13.72,23.929 15.297,38.613 1.617,14.644 -1.007,30.444 -8.265,44.591 -7.11,14.232 -18.715,26.637 -32.894,36.006 -7.157,4.603 -14.817,8.685 -22.974,11.909 -2.049,0.783 -4.071,1.624 -6.174,2.306 l -3.124,1.082 -3.177,0.969 c -4.551,1.362 -9.106,2.727 -13.662,4.09 -9.235,2.847 -18.467,5.788 -27.584,9.042 -9.116,3.262 -18.15,6.724 -27.05,10.467 -17.713,7.711 -35.035,16.093 -50.585,28.36 -3.879,3.098 -7.619,6.506 -11.057,10.499 -0.273,0.321 -0.544,0.651 -0.812,0.978 -9.268,-3.372 -18.296,-7.244 -27.065,-11.562 0.702,-1.186 1.481,-2.374 2.358,-3.56 1.658,-2.27 3.412,-4.604 5.611,-6.858 4.241,-4.563 9.448,-9.015 15.395,-13.2 11.878,-8.383 26.568,-15.456 42.284,-21.193 7.898,-2.809 16.049,-5.41 24.408,-7.574 l 3.094,-0.834 2.955,-0.731 2.954,-0.739 3.568,-0.778 3.582,-0.798 3.728,-0.869 c 2.925,-0.639 5.862,-1.424 8.788,-2.229 5.869,-1.639 11.693,-3.624 17.474,-6.032 2.881,-1.137 5.758,-2.511 8.602,-3.829 2.838,-1.468 5.652,-2.893 8.422,-4.551 11.109,-6.369 21.601,-14.773 30.352,-24.963 8.778,-10.155 15.554,-22.35 19.402,-35.127 1.903,-6.396 3.112,-12.909 3.605,-19.346 0.462,-6.442 0.239,-12.793 -0.581,-18.894 -0.863,-6.093 -2.307,-11.938 -4.234,-17.417 m 61.4,-118.061 c -5.6,0 -10.141,4.54 -10.141,10.141 0,5.602 4.541,10.141 10.141,10.141 5.601,0 10.141,-4.539 10.141,-10.141 0,-5.601 -4.54,-10.141 -10.141,-10.141"
           style="fill:#000000;fill-opacity:1;fill-rule:nonzero;stroke:none"
           id="path1420"
           inkscape:connector-curvature="0" /></g></g></g></svg>